<?xml version="1.0" standalone="no"?>
<!DOCTYPE svg PUBLIC "-//W3C//DTD SVG 20010904//EN"
 "http://www.w3.org/TR/2001/REC-SVG-20010904/DTD/svg10.dtd">
<svg version="1.0" xmlns="http://www.w3.org/2000/svg"
 width="1043.000000pt" height="508.000000pt" viewBox="0 0 1043.000000 508.000000"
 preserveAspectRatio="xMidYMid meet">

<g transform="translate(0.000000,508.000000) scale(0.100000,-0.100000)"
fill="#000000" stroke="none">
<path d="M10 5038 c-1 -100 35 -959 40 -967 3 -4 37 -4 75 1 62 8 397 28 402
24 9 -7 83 -1302 83 -1458 l0 -28 390 0 389 0 5 33 c3 17 19 284 36 592 17
308 36 628 42 711 l11 151 136 -4 c75 -3 182 -11 238 -17 l102 -12 5 71 c3 38
13 230 21 425 8 195 18 392 21 438 l6 82 -1001 0 -1001 0 0 -42z"/>
<path d="M2490 5071 c0 -22 -115 -643 -160 -866 -53 -258 -190 -846 -309
-1323 l-69 -272 236 2 235 3 43 150 42 150 35 -75 c19 -41 57 -121 84 -178
l49 -104 68 57 c90 73 133 102 238 159 l87 47 21 -73 c12 -40 26 -88 31 -105
l11 -33 439 0 c241 0 439 2 439 4 0 2 -32 135 -71 297 -156 652 -242 1026
-338 1474 -86 405 -141 674 -141 691 0 2 -218 4 -485 4 -273 0 -485 -4 -485
-9z m361 -1547 c45 -106 139 -363 139 -382 0 -21 -407 -88 -426 -70 -11 12 92
324 196 593 l12 30 15 -30 c9 -16 38 -80 64 -141z"/>
<path d="M4080 5069 c0 -32 652 -1203 776 -1395 13 -18 1 -42 -125 -260 -76
-131 -215 -364 -309 -517 -95 -153 -172 -280 -172 -283 0 -2 147 -4 328 -4
l327 0 49 83 c127 212 259 408 269 398 5 -5 73 -115 151 -243 l142 -233 377
-3 377 -2 -31 62 c-18 35 -148 289 -290 566 -143 276 -259 505 -259 508 0 3
63 107 139 232 222 363 507 857 610 1060 l21 42 -418 0 -419 0 -57 -130 c-67
-151 -177 -359 -190 -360 -13 -2 -89 176 -146 342 l-49 143 -550 3 c-388 1
-551 -1 -551 -9z"/>
<path d="M7998 4824 c-76 -40 -78 -99 -75 -1499 2 -1224 2 -1233 -50 -1465
-31 -144 -62 -229 -126 -354 -100 -196 -215 -321 -367 -400 -200 -103 -400
-119 -623 -50 -149 47 -251 107 -353 209 -119 119 -172 219 -210 399 -26 124
-34 244 -23 343 8 74 7 98 -4 125 -19 46 -71 70 -155 72 l-66 1 -28 -50 c-118
-218 -107 -589 26 -871 57 -119 117 -204 209 -295 220 -219 556 -339 907 -326
333 13 607 153 800 408 109 145 170 276 291 624 82 238 91 250 178 242 31 -3
92 -12 136 -21 158 -30 348 -15 580 49 233 64 358 128 473 243 150 150 222
327 222 544 0 178 -45 338 -147 528 -81 150 -95 167 -158 181 -105 23 -166
-17 -181 -120 -8 -55 2 -96 62 -247 69 -174 87 -299 63 -416 -51 -241 -262
-369 -673 -409 -246 -24 -349 1 -396 96 l-25 50 -6 890 c-7 1005 -6 981 -87
1303 -45 180 -48 187 -81 209 -39 26 -74 29 -113 7z"/>
<path d="M6774 4105 c-425 -109 -660 -422 -614 -815 61 -525 489 -1108 1139
-1552 l86 -59 18 53 c104 298 199 733 228 1040 16 171 7 542 -16 668 -56 308
-197 552 -365 633 -132 63 -310 75 -476 32z m247 -387 c76 -35 111 -67 149
-140 30 -57 34 -71 34 -143 0 -94 -21 -149 -80 -215 -57 -63 -121 -90 -215
-90 -65 0 -85 5 -137 30 -66 34 -119 85 -154 152 -18 35 -22 59 -22 128 -1 78
2 90 33 148 79 146 241 199 392 130z"/>
<path d="M9905 1973 c-102 -37 -190 -102 -275 -203 l-47 -58 -64 55 c-75 63
-157 107 -235 124 -111 25 -252 -20 -349 -112 -100 -94 -140 -196 -133 -334 8
-152 95 -283 232 -350 118 -58 244 -64 351 -16 71 31 175 139 242 250 1 2 26
-17 55 -43 108 -95 267 -154 378 -142 222 26 399 260 361 479 -24 144 -112
262 -244 327 -86 42 -193 51 -272 23z m323 -232 l73 -48 -58 -50 c-98 -84
-118 -87 -181 -22 -45 47 -43 81 8 131 23 21 51 38 63 38 12 0 55 -22 95 -49z
m-817 -70 c24 -17 59 -43 77 -58 l33 -28 -72 -47 c-39 -27 -83 -48 -97 -48
-18 0 -39 14 -69 46 -24 26 -43 52 -43 59 0 16 95 105 113 105 7 0 33 -13 58
-29z"/>
</g>
</svg>
